<svg width="16" height="16" viewBox="0 0 16 16" fill="none" xmlns="http://www.w3.org/2000/svg">
<path d="M14.001 3.7962C14.1877 3.7963 14.367 3.87024 14.499 4.00226C14.631 4.13428 14.705 4.31361 14.7051 4.50031C14.7051 4.67956 14.6349 4.85042 14.5127 4.98077L14.4971 4.99738L6.49707 12.9974C6.43176 13.0629 6.35399 13.1152 6.26855 13.1507C6.1832 13.1861 6.09142 13.2044 5.99902 13.2044C5.90659 13.2044 5.81486 13.1861 5.72949 13.1507C5.64408 13.1152 5.56626 13.0629 5.50098 12.9974L2.00098 9.49738C1.93565 9.432 1.884 9.35424 1.84863 9.26886C1.81324 9.18341 1.79492 9.09182 1.79492 8.99933C1.79493 8.90684 1.81324 8.81525 1.84863 8.7298C1.88401 8.64441 1.93564 8.56665 2.00098 8.50128C2.06629 8.43596 2.14417 8.38434 2.22949 8.34894C2.31486 8.31358 2.40663 8.29527 2.49902 8.29523C2.59146 8.29523 2.68314 8.31359 2.76855 8.34894C2.85394 8.3843 2.9317 8.43596 2.99707 8.50128L6 11.5042L6.0332 11.471L13.5029 4.00226C13.635 3.87037 13.8143 3.7962 14.001 3.7962Z" fill="white" stroke="white" stroke-width="0.09375"/>
</svg>
